<?xml version="1.0" encoding="utf-8"?>
<!-- Generator: Adobe Illustrator 24.0.1, SVG Export Plug-In . SVG Version: 6.00 Build 0)  -->
<svg version="1.1" id="Layer_1" xmlns="http://www.w3.org/2000/svg" xmlns:xlink="http://www.w3.org/1999/xlink" x="0px" y="0px"
	 viewBox="0 0 272.85 269.02" style="enable-background:new 0 0 272.85 269.02;" xml:space="preserve">
<style type="text/css">
	.st0{fill:#68BE47;}
	.st1{fill:#FFFFFF;}
</style>
<circle class="st0" cx="133.83" cy="136.15" r="127.23"/>
<path class="st1" d="M146.3,140.55l0.13,14.96c9.79,4.54,16.59,14.45,16.59,25.95c0,15.79-12.8,28.6-28.6,28.6s-28.6-12.8-28.6-28.6
	c0-5.47,1.54-10.57,4.2-14.92l0.16,0.04l2.43,19.53l11.49-1.53l-4.06-27.84l-1.3-8.93l-9.63,1.92l-26.88,5.36l2.55,10.85l13.24-2.45
	c-2.68,5.42-4.19,11.51-4.19,17.96c0,22.42,18.18,40.6,40.6,40.6s40.6-18.18,40.6-40.6C175.01,163.23,162.51,148.02,146.3,140.55z"
	/>
<path class="st1" d="M123.93,137.06l-0.13-14.96c-9.79-4.54-16.59-14.45-16.59-25.95c0-15.79,12.8-28.6,28.6-28.6
	s28.6,12.8,28.6,28.6c0,5.47-1.54,10.57-4.2,14.92l-0.16-0.04l-2.43-19.53l-11.49,1.53l4.06,27.84l1.3,8.93l9.63-1.92l26.88-5.36
	l-2.55-10.85l-13.24,2.45c2.68-5.42,4.19-11.51,4.19-17.96c0-22.42-18.18-40.6-40.6-40.6s-40.6,18.18-40.6,40.6
	C95.21,114.39,107.71,129.6,123.93,137.06z"/>
<rect x="129.53" y="86.64" class="st1" width="12.6" height="105.02"/>
</svg>
